<?xml version="1.0" encoding="UTF-8" standalone="no"?>
<!-- Created with Inkscape (http://www.inkscape.org/) -->

<svg
   width="600"
   height="600"
   viewBox="0 0 158.75 158.75"
   version="1.1"
   id="svg1"
   xmlns:xlink="http://www.w3.org/1999/xlink"
   xmlns="http://www.w3.org/2000/svg"
   xmlns:svg="http://www.w3.org/2000/svg">
  <defs
     id="defs1">
    <linearGradient
       id="linearGradient12">
      <stop
         style="stop-color:#7540bf;stop-opacity:1;"
         offset="0"
         id="stop12" />
      <stop
         style="stop-color:#4095bf;stop-opacity:1;"
         offset="1"
         id="stop13" />
    </linearGradient>
    <linearGradient
       xlink:href="#linearGradient12"
       id="linearGradient13"
       x1="136.54938"
       y1="135.47516"
       x2="23.632919"
       y2="22.916771"
       gradientUnits="userSpaceOnUse" />
  </defs>
  <g
     id="layer1"
     style="display:inline">
    <path
       id="path1"
       style="fill:url(#linearGradient13);fill-opacity:1;stroke-width:1.32292;stroke-linecap:round;stroke-linejoin:round"
       d="M 87.841667,0.46043701 V 34.592721 C 108.90718,38.590607 124.96292,57.189777 124.96292,79.375 a 8.4674967,8.4674967 0 0 0 0,5.17e-4 8.4674967,8.4674967 0 0 0 0,5.17e-4 8.4674967,8.4674967 0 0 0 0,5.16e-4 8.4674967,8.4674967 0 0 0 0,5.17e-4 8.4674967,8.4674967 0 0 0 0,5.17e-4 8.4674967,8.4674967 0 0 0 0,5.17e-4 8.4674967,8.4674967 0 0 0 0,5.16e-4 8.4674967,8.4674967 0 0 0 0,5.17e-4 8.4674967,8.4674967 0 0 0 0,5.17e-4 8.4674967,8.4674967 0 0 0 0,5.17e-4 8.4674967,8.4674967 0 0 0 0,5.16e-4 l -0.0253,37.123316 a 8.4674967,8.4674967 0 0 1 -8.46666,8.45892 H 79.375 c -22.185218,0 -40.784373,-16.05573 -44.782279,-37.121253 H 0.65990804 A 79.375,79.375 0 0 0 79.429777,158.75 H 158.75 l 0.0548,-79.375 A 79.375,79.375 0 0 0 87.841667,0.46043701 Z M 70.908333,0.60926514 A 79.375,79.375 0 0 0 29.716532,17.744137 L 53.74504,41.772644 c 5.089528,-3.484215 10.89598,-5.990491 17.163293,-7.179923 z M 17.819584,29.79198 A 79.375,79.375 0 0 0 0.67799479,70.908333 H 34.618042 C 35.814069,64.646611 38.275636,58.82084 41.762309,53.734705 Z M 79.375,50.718868 C 63.44878,50.718869 50.718866,63.44877 50.718868,79.375 c 2e-6,15.926228 12.729905,28.65613 28.656132,28.65613 h 28.63649 l 0.0196,-28.65613 c 0,-15.926233 -12.729913,-28.656134 -28.65613,-28.656132 z" />
  </g>
</svg>
