<?xml version="1.0" encoding="UTF-8" standalone="no"?>
<!-- Created with Inkscape (http://www.inkscape.org/) -->

<svg
   width="499.99997"
   height="404.27148"
   viewBox="0 0 132.29166 106.96349"
   version="1.1"
   id="svg1"
   xml:space="preserve"
   xmlns="http://www.w3.org/2000/svg"
   xmlns:svg="http://www.w3.org/2000/svg"><defs
     id="defs1" /><g
     id="layer2"
     style="display:inline"
     transform="translate(379.41247,-335.75623)"><path
       id="rect99-45-0"
       style="display:inline;fill:#c1aac5;fill-opacity:1;stroke:none;stroke-width:1.85208;stroke-linecap:round;stroke-linejoin:round;stroke-opacity:1"
       d="m -279.08373,335.75624 c -6.62502,-2.5e-4 -11.99576,5.42001 -11.99565,12.10624 0.009,2.14616 0.58303,4.25135 1.66346,6.09988 -3.15678,0.46842 -5.49131,3.13416 -5.49269,6.27197 0.006,0.7535 0.14769,1.49999 0.41962,2.20452 -0.75774,-0.30221 -1.56599,-0.45776 -2.38177,-0.45837 -0.11267,0.005 -0.2252,0.0132 -0.33745,0.0243 -0.16608,-3.48071 -3.03638,-6.21749 -6.52105,-6.21771 -3.60593,4e-5 -6.52905,2.92338 -6.5288,6.52932 0.006,1.06476 0.27153,2.11202 0.77463,3.05046 -0.98131,0.69325 -1.7492,1.64712 -2.21692,2.75383 -0.59728,-0.39066 -1.29548,-0.59879 -2.00917,-0.59893 -0.27758,0.003 -0.55393,0.0375 -0.82373,0.10284 0.0311,-0.18913 0.0474,-0.3804 0.0486,-0.57206 -1.3e-4,-2.02792 -1.64421,-3.67176 -3.67213,-3.67161 -1.79229,0.003 -3.32083,1.29872 -3.61632,3.06648 -0.7031,-0.56188 -1.59422,-0.89917 -2.56831,-0.89917 h -0.88419 c -0.38149,-3.05669 -2.97918,-5.3511 -6.05958,-5.35213 -3.07842,0.004 -5.67317,2.29739 -6.05441,5.35213 h -0.046 c -0.95751,-1.4637 -2.49651,-2.44674 -4.22713,-2.70009 1.16132,-1.78237 1.78029,-3.86352 1.7818,-5.99085 -2.3e-4,-6.06839 -4.91957,-10.98773 -10.98796,-10.98796 -3.14695,0.003 -6.14173,1.35457 -8.22533,3.71295 -0.74604,-0.38008 -1.57136,-0.5784 -2.40864,-0.57878 -2.93317,-5e-5 -5.31108,2.37762 -5.31131,5.31079 0.004,0.17361 0.016,0.34694 0.0367,0.51935 -1.08036,0.13027 -2.12629,0.46394 -3.08249,0.9834 -0.45542,-0.92124 -1.02319,-1.78252 -1.69034,-2.56418 1.89278,-1.63705 2.98058,-4.01596 2.9807,-6.51847 1.5e-4,-4.76006 -3.85853,-8.61898 -8.6186,-8.61911 -0.77079,0.0178 -1.53571,0.13894 -2.27428,0.36018 v 35.18752 15.57476 53.482 h 132.29166 v -53.482 -31.45338 -16.61397 c -1.36148,-0.7248 -2.88007,-1.10436 -4.42247,-1.10536 -2.75691,0.002 -5.37479,1.21078 -7.1639,3.30833 -1.29341,-1.1372 -2.95654,-1.76468 -4.67878,-1.76527 -1.68182,0.002 -3.30829,0.60113 -4.58887,1.69137 -1.83865,-4.56026 -6.23062,-7.54251 -11.10888,-7.54321 z" /></g></svg>
