<?xml version="1.0" encoding="UTF-8" standalone="no"?>
<!-- Created with Inkscape (http://www.inkscape.org/) -->

<svg
   width="499.99997"
   height="506.19922"
   viewBox="0 0 132.29166 133.93187"
   version="1.1"
   id="svg1"
   xml:space="preserve"
   xmlns="http://www.w3.org/2000/svg"
   xmlns:svg="http://www.w3.org/2000/svg"><defs
     id="defs1" /><g
     id="layer2"
     style="display:inline"
     transform="translate(-173.78938,-288.14572)"><path
       id="path99-0"
       style="display:inline;fill:#5e5797;fill-opacity:1;stroke:none;stroke-width:1.85208;stroke-linecap:round;stroke-linejoin:round;stroke-opacity:1"
       d="m 178.85419,288.14571 a 5.3818846,5.0604329 0 0 0 -5.0648,3.56102 v 2.99879 73.89058 53.48148 H 306.08105 V 368.5961 308.16774 293.19346 a 8.9726658,9.0676165 0 0 0 -4.98161,-1.53478 8.9726658,9.0676165 0 0 0 -5.03587,1.57923 12.754795,12.754795 0 0 0 -6.14071,-1.57923 12.754795,12.754795 0 0 0 -12.75477,12.75477 5.4320312,5.3804345 0 0 0 -2.728,0.74104 6.3378334,6.2975268 0 0 0 -4.69791,-2.07016 6.3378334,6.2975268 0 0 0 -5.44256,3.09439 7.4534888,7.4851389 0 0 0 -0.89503,-0.0558 7.4534888,7.4851389 0 0 0 -7.4533,7.48481 7.4534888,7.4851389 0 0 0 4.78576,6.9696 8.2605467,8.2209845 0 0 0 -0.1018,1.25161 8.2605467,8.2209845 0 0 0 0.0692,0.96324 9.4555511,9.4292192 0 0 0 -7.66568,7.40162 3.956202,4.0195041 0 0 0 -1.04386,-0.14418 3.956202,4.0195041 0 0 0 -1.17978,0.23823 4.39329,4.539886 0 0 0 0.0351,-0.23823 4.39329,4.539886 0 0 0 -4.39301,-4.53977 4.39329,4.539886 0 0 0 -4.18424,3.17448 3.2610259,3.212436 0 0 0 -0.20929,-0.008 3.2610259,3.212436 0 0 0 -3.26078,3.21272 3.2610259,3.212436 0 0 0 0.29455,1.33429 14.29775,14.039645 0 0 0 -3.34243,1.57923 4.6909733,4.6090751 0 0 0 0.0103,-0.14366 4.6909733,4.6090751 0 0 0 -4.69119,-4.60954 4.6909733,4.6090751 0 0 0 -3.10162,1.15549 6.0134268,6.0134268 0 0 0 -5.95002,-5.14336 6.0134268,6.0134268 0 0 0 -4.19871,1.71979 4.3056765,4.3056765 0 0 0 -0.79995,-1.22576 4.1903458,4.1903458 0 0 0 1.96008,-3.54449 4.1903458,4.1903458 0 0 0 -4.18992,-4.19044 4.1903458,4.1903458 0 0 0 -2.33526,0.71727 5.0013843,5.0013843 0 0 0 -1.41697,-2.4753 9.4814434,9.4814434 0 0 0 4.01733,-7.72356 9.4814434,9.4814434 0 0 0 -9.48108,-9.48159 9.4814434,9.4814434 0 0 0 -7.70237,3.98942 3.0700128,3.0700128 0 0 0 -2.90938,-2.78433 5.7197666,5.8621902 0 0 0 0.709,-2.79621 5.7197666,5.8621902 0 0 0 -5.71955,-5.86217 5.7197666,5.8621902 0 0 0 -2.80551,0.76997 4.0106874,3.9162743 0 0 0 -2.38797,-0.76997 4.0106874,3.9162743 0 0 0 -0.58756,0.0434 5.3818846,5.0604329 0 0 0 -5.32061,-4.30206 z" /></g></svg>
