<?xml version="1.0" encoding="UTF-8" standalone="no"?>
<!-- Created with Inkscape (http://www.inkscape.org/) -->

<svg
   width="499.99997"
   height="466.41602"
   viewBox="0 0 132.29166 123.4059"
   version="1.1"
   id="svg1"
   xml:space="preserve"
   xmlns="http://www.w3.org/2000/svg"
   xmlns:svg="http://www.w3.org/2000/svg"><defs
     id="defs1" /><g
     id="layer2"
     style="display:inline"
     transform="translate(28.622024,-368.5961)"><path
       id="rect1-2-8"
       style="display:inline;fill:#9a7eb4;fill-opacity:1;stroke-width:1.56036;stroke-linecap:round;stroke-linejoin:round"
       d="m 98.669427,368.5961 a 11.050709,11.277395 0 0 0 -10.292395,7.25072 6.2958622,6.4250116 0 0 0 -2.447913,0.93224 7.7813067,7.7813067 0 0 0 -6.554121,-3.591 7.7813067,7.7813067 0 0 0 -7.781437,7.78144 7.7813067,7.7813067 0 0 0 3.685046,6.60632 12.640697,12.9 0 0 0 -1.812292,-0.22997 12.640697,12.9 0 0 0 -12.273669,9.94617 5.2725425,5.3806996 0 0 0 -2.855123,-0.85938 5.2725425,5.3806996 0 0 0 -5.272546,5.38107 5.2725425,5.3806996 0 0 0 0.662491,2.58227 10.09392,10.30098 0 0 0 -3.956864,7.37267 13.91202,13.961064 0 0 0 -2.424658,-0.21807 13.91202,13.961064 0 0 0 -11.057206,5.54695 5.5814724,5.6011486 0 0 0 -3.224609,-2.22984 5.000639,5.1538277 0 0 0 0.369486,-1.91306 5.000639,5.1538277 0 0 0 -5.000211,-5.15369 5.000639,5.1538277 0 0 0 -4.940784,4.37699 9.8645611,9.8645611 0 0 0 -5.333524,-1.56941 9.8645611,9.8645611 0 0 0 -2.088762,0.24908 5.609489,5.7245584 0 0 0 1.281059,-3.62769 5.609489,5.7245584 0 0 0 -2.196248,-4.54029 10.09392,10.30098 0 0 0 1.320333,-5.04259 10.09392,10.30098 0 0 0 -10.0939576,-10.30118 10.09392,10.30098 0 0 0 -6.8114703,2.72129 3.5764065,3.6097021 0 0 0 -2.3083862,-0.8537 3.5764065,3.6097021 0 0 0 -3.4990111,2.90525 5.9259043,5.938015 0 0 0 -0.9658325,-0.0811 5.9259043,5.938015 0 0 0 -1.1105265,0.11885 5.6652813,5.6094079 0 0 0 0.8495605,-2.94297 5.6652813,5.6094079 0 0 0 -5.6652873,-5.60948 5.6652813,5.6094079 0 0 0 -1.335319,0.17105 10.721406,10.596065 0 0 0 0.06046,-0.83457 10.721406,10.596065 0 0 0 -10.721309,-10.59625 10.721406,10.596065 0 0 0 -3.496428,0.61133 v 19.97604 45.58895 53.48149 H 103.66964 v -53.48149 -48.61719 -19.93056 a 11.050709,11.277395 0 0 0 -5.000213,-1.37666 z" /></g></svg>
