<?xml version="1.0" encoding="UTF-8" standalone="no"?>
<!-- Created with Inkscape (http://www.inkscape.org/) -->

<svg
   width="63.999996"
   height="63.999996"
   viewBox="0 0 16.933332 16.933332"
   version="1.1"
   id="svg1"
   xml:space="preserve"
   xmlns="http://www.w3.org/2000/svg"
   xmlns:svg="http://www.w3.org/2000/svg"><defs
     id="defs1" /><g
     id="layer1"><path
       id="rect2-9-9"
       style="fill:#000000;stroke:none;stroke-width:10.5833;stroke-linecap:round;stroke-linejoin:round"
       d="M 2.3476603 0 C 1.0471138 0 0 1.0471138 0 2.3476603 L 0 14.585673 C -6.2665858e-16 15.886219 1.0471138 16.933333 2.3476603 16.933333 L 14.585673 16.933333 C 15.886219 16.933333 16.933333 15.886219 16.933333 14.585673 L 16.933333 2.3476603 C 16.933333 1.0471138 15.886219 0 14.585673 0 L 2.3476603 0 z M 4.0943237 3.9294758 L 12.839009 3.9294758 C 13.768285 3.9294758 14.516426 4.6776169 14.516426 5.6068928 L 14.516426 11.32644 C 14.516426 12.255716 13.768285 13.003857 12.839009 13.003857 L 4.0943237 13.003857 C 3.1650478 13.003857 2.4169067 12.255716 2.4169067 11.32644 L 2.4169067 5.6068928 C 2.4169067 4.6776169 3.1650478 3.9294758 4.0943237 3.9294758 z " /><path
       id="path3"
       style="color:#000000;fill:#000000;stroke-linecap:round;stroke-linejoin:round;-inkscape-stroke:none"
       d="M 4.0328287 6.6745279 C 3.8819657 6.6713643 3.7303617 6.7398041 3.6349202 6.8786498 C 3.4861106 7.0937559 3.5403064 7.3888222 3.755843 7.5370075 L 5.9262531 9.0283893 L 3.7052001 11.046871 C 3.511786 11.222585 3.4976654 11.521905 3.6736775 11.715047 C 3.8495383 11.90831 4.148851 11.922195 4.3418538 11.746053 L 6.7267211 9.5787433 L 7.4786131 10.095508 C 7.5827255 10.16725 7.9437612 10.385669 8.4113727 10.4097 C 8.429598 10.411536 8.4478263 10.412602 8.4666665 10.412284 C 8.4855067 10.412602 8.503735 10.411536 8.5219603 10.4097 C 8.9895716 10.385669 9.3506074 10.16725 9.4547199 10.095508 L 10.206612 9.5787433 L 12.591479 11.746053 C 12.784482 11.922195 13.083795 11.90831 13.259656 11.715047 C 13.43567 11.521905 13.421547 11.222585 13.228133 11.046871 L 11.00708 9.0283893 L 13.17749 7.5370075 C 13.393023 7.3888222 13.447223 7.0937559 13.298413 6.8786498 C 13.145706 6.6564967 12.848822 6.6150106 12.642122 6.7577269 L 8.9451903 9.3007241 C 8.9364933 9.3046034 8.5826364 9.4646155 8.4666665 9.4666055 C 8.3506964 9.4646107 7.9968392 9.3046034 7.9881428 9.3007241 L 4.2912109 6.7577269 C 4.2136987 6.7042083 4.1233465 6.676426 4.0328287 6.6745279 z " /></g></svg>
