<?xml version="1.0" encoding="UTF-8" standalone="no"?>
<svg
   width="64"
   height="64"
   version="1.1"
   id="svg1"
   xmlns="http://www.w3.org/2000/svg"
   xmlns:svg="http://www.w3.org/2000/svg">
  <defs
     id="defs1" />
  <path
     fill-rule="evenodd"
     clip-rule="evenodd"
     d="M 32.026479,0 C 14.316664,0 0,14.666605 0,32.811195 c 0,14.50394 9.1731796,26.781222 21.898811,31.126537 1.591032,0.326665 2.17382,-0.705997 2.17382,-1.57466 0,-0.760665 -0.05244,-3.367985 -0.05244,-6.084642 C 15.1112,58.234422 13.25598,52.367115 13.25598,52.367115 11.824248,48.564462 9.7028721,47.587135 9.7028721,47.587135 6.7869638,45.577142 9.9152719,45.577142 9.9152719,45.577142 c 3.2345081,0.217333 4.9317391,3.367985 4.9317391,3.367985 2.862809,4.997313 7.475948,3.58532 9.331824,2.71599 0.264844,-2.118657 1.113788,-3.58532 2.015175,-4.399982 -7.105558,-0.760663 -14.581507,-3.585318 -14.581507,-16.188598 0,-3.58532 1.271777,-6.51864 3.286953,-8.799964 -0.317944,-0.814663 -1.431732,-4.183316 0.318599,-8.691963 0,0 2.704164,-0.86933 8.80148,3.367986 a 30.791414,31.313202 0 0 1 8.006948,-1.086663 c 2.704165,0 5.460772,0.380666 8.006293,1.086663 6.09797,-4.237316 8.802135,-3.367986 8.802135,-3.367986 1.750333,4.508647 0.635887,7.8773 0.317945,8.691963 2.068275,2.281324 3.287608,5.214644 3.287608,8.799964 0,12.60328 -7.475948,15.373268 -14.634608,16.188598 1.166887,1.031995 2.17382,2.987322 2.17382,6.083975 0,4.399982 -0.05244,7.9313 -0.05244,9.017295 0,0.86933 0.583445,1.901992 2.17382,1.575995 C 54.82668,59.59175 63.999858,47.315135 63.999858,32.811195 64.052303,14.666605 49.683194,0 32.026479,0 Z"
     fill="#24292f"
     id="path1"
     style="fill:#000000;stroke-width:1" />
</svg>
