<?xml version="1.0" encoding="UTF-8" standalone="no"?>
<!-- Created with Inkscape (http://www.inkscape.org/) -->

<svg
   width="63.999989"
   height="63.999996"
   viewBox="0 0 16.93333 16.933332"
   version="1.1"
   id="svg1"
   xml:space="preserve"
   xmlns="http://www.w3.org/2000/svg"
   xmlns:svg="http://www.w3.org/2000/svg"><defs
     id="defs1" /><path
     id="rect2"
     style="fill:#000000;stroke:none;stroke-width:10.5833;stroke-linecap:round;stroke-linejoin:round"
     d="M 2.34759,0 C 1.04704,0 0,1.046912 0,2.347458 v 12.238294 c 0,1.30054 1.04704,2.34758 2.34759,2.34758 h 12.23829 c 1.30054,0 2.34745,-1.04704 2.34745,-2.34758 V 2.347458 C 16.93333,1.046912 15.88642,0 14.58588,0 Z M 3.78265,2.347458 A 1.444041,1.4440409 0 0 1 5.22676,3.791568 1.444041,1.4440409 0 0 1 3.78265,5.235551 1.444041,1.4440409 0 0 1 2.33866,3.791568 1.444041,1.4440409 0 0 1 3.78265,2.347458 Z m 7.8806,3.806354 c 3.15694,-0.008 2.77249,3.77079 2.77249,3.77079 v 4.51649 h -2.50587 v -4.51649 c 0,0 0.0929,-1.61037 -1.41913,-1.55907 -1.37518,0.0467 -1.37529,1.56251 -1.37529,1.56251 v 4.51305 H 6.6297 v -8.09152 h 2.50575 v 1.02659 c 0,0 0.52458,-1.21727 2.5278,-1.22235 z m -9.14654,0.19576 h 2.50575 v 8.09152 H 2.51671 Z" /></svg>
